<svg xmlns="http://www.w3.org/2000/svg" viewBox="0 0 369.66 41.33"><defs><style>.cls-1{fill:#fff;}</style></defs><title>Recurso 4</title><g id="Capa_2" data-name="Capa 2"><g id="_1" data-name="1"><path class="cls-1" d="M148.92,35.82v0Z"/><path class="cls-1" d="M148.92,37.18a1.37,1.37,0,0,1-1.37-1.36V3.52a1.37,1.37,0,0,1,2.74,0v32.3a1.36,1.36,0,0,1-1.37,1.36"/><path class="cls-1" d="M80.54,31.84a2.34,2.34,0,0,0-1.5.66.1.1,0,0,1-.11,0,.08.08,0,0,1-.06-.08v-.06a.43.43,0,0,0-.43-.43h-.67a.43.43,0,0,0-.43.43v6.35a.43.43,0,0,0,.43.43h.67a.43.43,0,0,0,.43-.43V35.35a1.85,1.85,0,0,1,.57-1.51,2,2,0,0,1,1.17-.43A.42.42,0,0,0,81,33v-.71a.4.4,0,0,0-.13-.31.42.42,0,0,0-.34-.12"/><path class="cls-1" d="M73.46,29.57a3.11,3.11,0,0,1,2.27.9,3.16,3.16,0,0,1-2.27,5.4H71.63a.13.13,0,0,0-.13.14v2.7a.46.46,0,0,1-.46.45h-.67a.45.45,0,0,1-.45-.45V30a.45.45,0,0,1,.45-.45Zm0,4.82a1.55,1.55,0,0,0,1.15-.47,1.69,1.69,0,0,0,.45-1.2,1.65,1.65,0,0,0-.45-1.2,1.51,1.51,0,0,0-1.15-.47H71.63a.13.13,0,0,0-.13.13v3.08a.13.13,0,0,0,.13.13Z"/><path class="cls-1" d="M84.93,31.78a3.8,3.8,0,0,0-2.68,6.47,3.69,3.69,0,0,0,2.68,1.09,3.73,3.73,0,0,0,2.69-1.09,3.78,3.78,0,0,0-2.69-6.47m1.62,5.41a2.18,2.18,0,0,1-1.62.65,2.15,2.15,0,0,1-1.6-.65,2.37,2.37,0,0,1,0-3.26,2.15,2.15,0,0,1,1.6-.65,2.18,2.18,0,0,1,1.62.65,2.37,2.37,0,0,1,0,3.26"/><path class="cls-1" d="M95.28,32h-.72a.42.42,0,0,0-.4.28L92.31,37a.1.1,0,0,1-.18,0l-1.85-4.78a.42.42,0,0,0-.4-.28h-.72a.42.42,0,0,0-.36.19.41.41,0,0,0,0,.4l2.54,6.35a.41.41,0,0,0,.4.27h1a.41.41,0,0,0,.4-.27l2.54-6.35a.44.44,0,0,0,0-.4.42.42,0,0,0-.36-.19"/><path class="cls-1" d="M97.79,32h-.67a.44.44,0,0,0-.43.43v6.35a.43.43,0,0,0,.43.43h.67a.43.43,0,0,0,.43-.43V32.38a.43.43,0,0,0-.43-.43"/><path class="cls-1" d="M97.46,29.09a.9.9,0,0,0-.69.3.93.93,0,0,0-.28.68.9.9,0,0,0,.28.68,1,1,0,0,0,1.66-.68,1,1,0,0,0-.28-.68.92.92,0,0,0-.69-.3"/><path class="cls-1" d="M103.19,31.78a2.7,2.7,0,0,0-1.9.68.1.1,0,0,1-.16-.08.43.43,0,0,0-.43-.43H100a.44.44,0,0,0-.43.43v6.35a.43.43,0,0,0,.43.43h.67a.43.43,0,0,0,.43-.43V35.35a2.2,2.2,0,0,1,.5-1.59,1.79,1.79,0,0,1,1.33-.51,1.48,1.48,0,0,1,1.13.41,1.61,1.61,0,0,1,.41,1.18v3.89a.43.43,0,0,0,.43.43h.67a.43.43,0,0,0,.43-.43v-4a3,3,0,0,0-.78-2.18,2.72,2.72,0,0,0-2.06-.81"/><path class="cls-1" d="M113.63,37.11l-.56-.33a.43.43,0,0,0-.57.13,2.18,2.18,0,0,1-.66.62,2.35,2.35,0,0,1-1.16.3,2.24,2.24,0,0,1-2.25-2.27,2.19,2.19,0,0,1,.65-1.63,2.13,2.13,0,0,1,1.6-.65,2.22,2.22,0,0,1,1.15.3,1.94,1.94,0,0,1,.63.61.41.41,0,0,0,.57.14l.56-.32a.41.41,0,0,0,.2-.26.45.45,0,0,0,0-.32,3.3,3.3,0,0,0-1.15-1.14,3.9,3.9,0,0,0-4.62.57,3.81,3.81,0,0,0,4.62,6,3.56,3.56,0,0,0,1.17-1.11.41.41,0,0,0,.06-.34.45.45,0,0,0-.2-.27"/><path class="cls-1" d="M115.48,29.09a.92.92,0,0,0-.7.3,1,1,0,0,0-.28.68.94.94,0,0,0,.28.68,1,1,0,0,0,.7.29.94.94,0,0,0,.68-.29.9.9,0,0,0,.28-.68.93.93,0,0,0-.28-.68.91.91,0,0,0-.68-.3"/><path class="cls-1" d="M115.81,32h-.67a.43.43,0,0,0-.43.43v6.35a.43.43,0,0,0,.43.43h.67a.43.43,0,0,0,.43-.43V32.38a.44.44,0,0,0-.43-.43"/><path class="cls-1" d="M124.37,32h-.68a.43.43,0,0,0-.42.43v.19a.09.09,0,0,1-.06.09.1.1,0,0,1-.11,0,3.12,3.12,0,0,0-2.27-.86,3.49,3.49,0,0,0-2.58,1.1,3.92,3.92,0,0,0,0,5.36,3.49,3.49,0,0,0,2.58,1.1,3.12,3.12,0,0,0,2.27-.86.08.08,0,0,1,.11,0,.09.09,0,0,1,.06.08v.19a.42.42,0,0,0,.42.43h.68a.42.42,0,0,0,.42-.43V32.38a.43.43,0,0,0-.42-.43m-1.76,5.24a2.32,2.32,0,0,1-3.24,0,2.19,2.19,0,0,1-.65-1.63,2.22,2.22,0,0,1,.65-1.64,2.32,2.32,0,0,1,3.24,0,2.23,2.23,0,0,1,.66,1.64,2.19,2.19,0,0,1-.66,1.63"/><path class="cls-1" d="M8.57,23.74A10.06,10.06,0,0,1,3,22.24,7.9,7.9,0,0,1,.1,19a1,1,0,0,1,.41-1.34L2,16.8a1,1,0,0,1,1.41.39,5.45,5.45,0,0,0,5.26,2.89,5.15,5.15,0,0,0,3.19-.83,2.64,2.64,0,0,0,1.07-2.17,2.39,2.39,0,0,0-1.15-2.14,18.32,18.32,0,0,0-4-1.61h0l-2.62-1A10.1,10.1,0,0,1,2.93,11.2,4.82,4.82,0,0,1,1.24,9.29,6.08,6.08,0,0,1,.68,6.61,5.94,5.94,0,0,1,2.84,1.78,7.91,7.91,0,0,1,8,0a8.43,8.43,0,0,1,7.48,4.1,1,1,0,0,1-.36,1.44l-1.41.81A1,1,0,0,1,12.39,6,4.8,4.8,0,0,0,8,3.66a4.12,4.12,0,0,0-2.61.77,2.49,2.49,0,0,0-1,2.08,2.29,2.29,0,0,0,1,2A13.7,13.7,0,0,0,9.07,10h0l1.86.71,1.72.64a5.82,5.82,0,0,1,1.66.89,12.62,12.62,0,0,1,1.19,1.16A4,4,0,0,1,16.42,15a7.33,7.33,0,0,1,.26,2,6,6,0,0,1-2.24,4.92,9,9,0,0,1-5.87,1.81"/><path class="cls-1" d="M107.16,4H98.9a.39.39,0,0,0-.39.4V10a.38.38,0,0,0,.39.39h7.35a1,1,0,0,1,1,1V13a1,1,0,0,1-1,1H98.9a.39.39,0,0,0-.39.39v7.9a1,1,0,0,1-1,1H95.74a1,1,0,0,1-1-1V1.42a1,1,0,0,1,1-1h11.42a1,1,0,0,1,1,1V3a1,1,0,0,1-1,1"/><path class="cls-1" d="M35.79,6.12H33.71a.73.73,0,0,0-.74.73v.43a.37.37,0,0,1-.62.28,7.41,7.41,0,0,0-5.18-1.87,8.22,8.22,0,0,0-6.09,2.6,8.83,8.83,0,0,0-2.51,6.33,8.81,8.81,0,0,0,2.51,6.32,8.18,8.18,0,0,0,6.09,2.6,7.36,7.36,0,0,0,5.18-1.87A.37.37,0,0,1,33,22v.44a.74.74,0,0,0,.74.73h2.08a.73.73,0,0,0,.73-.73V6.85a.73.73,0,0,0-.73-.73m-8.26,14a5.16,5.16,0,0,1-3.85-1.57,5.27,5.27,0,0,1-1.56-3.9,5.29,5.29,0,0,1,1.56-3.91,5.55,5.55,0,0,1,7.74,0A5.32,5.32,0,0,1,33,14.62a5.3,5.3,0,0,1-1.55,3.9,5.2,5.2,0,0,1-3.89,1.57"/><path class="cls-1" d="M48,5.69a6.48,6.48,0,0,0-4.31,1.44.37.37,0,0,1-.61-.28.73.73,0,0,0-.73-.73H40.3a.73.73,0,0,0-.73.73V22.39a.73.73,0,0,0,.73.73h2.09a.73.73,0,0,0,.73-.73V14.13a5.26,5.26,0,0,1,1.2-3.81,4.24,4.24,0,0,1,3.17-1.21,3.61,3.61,0,0,1,2.71,1,3.87,3.87,0,0,1,1,2.83v9.47a.73.73,0,0,0,.73.73H54a.73.73,0,0,0,.73-.73V12.76a7.14,7.14,0,0,0-1.83-5.15A6.42,6.42,0,0,0,48,5.69"/><path class="cls-1" d="M66,6.12H62.73a.38.38,0,0,1-.38-.38V1.91a.37.37,0,0,0-.14-.29A.4.4,0,0,0,62,1.55l-.1,0-2.57.77a.72.72,0,0,0-.52.7v2.7a.38.38,0,0,1-.38.38H56.31a.73.73,0,0,0-.73.73v2a.73.73,0,0,0,.73.73h2.12a.38.38,0,0,1,.38.38V18c0,2.14.63,3.63,1.89,4.42a6.59,6.59,0,0,0,3.53.81A17.16,17.16,0,0,0,66,23.16a.74.74,0,0,0,.65-.73V20.22a.36.36,0,0,0-.11-.26.38.38,0,0,0-.25-.09h0c-.76,0-1.42.05-2,.05h-.41a1.6,1.6,0,0,1-1.2-.4A2.18,2.18,0,0,1,62.35,18V9.94a.38.38,0,0,1,.38-.38H66a.73.73,0,0,0,.73-.73v-2A.73.73,0,0,0,66,6.12"/><path class="cls-1" d="M84.34,6.12H82.26a.73.73,0,0,0-.73.73v.43a.38.38,0,0,1-.63.28,7.4,7.4,0,0,0-5.17-1.87,8.22,8.22,0,0,0-6.09,2.6,8.79,8.79,0,0,0-2.51,6.33,8.77,8.77,0,0,0,2.51,6.32,8.18,8.18,0,0,0,6.09,2.6,7.35,7.35,0,0,0,5.17-1.87.38.38,0,0,1,.63.28v.44a.73.73,0,0,0,.73.73h2.08a.74.74,0,0,0,.74-.73V6.85a.73.73,0,0,0-.74-.73m-8.26,14a5.16,5.16,0,0,1-3.85-1.57,5.27,5.27,0,0,1-1.56-3.9,5.29,5.29,0,0,1,1.56-3.91,5.55,5.55,0,0,1,7.74,0,5.29,5.29,0,0,1,1.56,3.91A5.27,5.27,0,0,1,80,18.52a5.2,5.2,0,0,1-3.89,1.57"/><path class="cls-1" d="M123.64,8.34a7.85,7.85,0,0,0-6.12-2.65,8.61,8.61,0,0,0-6.41,2.55,8.84,8.84,0,0,0-2.48,6.38A8.7,8.7,0,0,0,111.16,21a8.92,8.92,0,0,0,6.56,2.53,8.44,8.44,0,0,0,6.69-2.8,1.09,1.09,0,0,0-.29-1.66l-1.1-.64a1.12,1.12,0,0,0-1.39.23,4.88,4.88,0,0,1-3.84,1.49A5.91,5.91,0,0,1,114.11,19a4.75,4.75,0,0,1-1.62-2.25.37.37,0,0,1,.35-.5h12.37a.74.74,0,0,0,.73-.65,8.15,8.15,0,0,0,0-1,9.16,9.16,0,0,0-2.35-6.31M114,10.28a5.25,5.25,0,0,1,3.54-1.2,4.88,4.88,0,0,1,3.2,1.12,4.74,4.74,0,0,1,1.51,2.41.38.38,0,0,1-.37.48h-9a.38.38,0,0,1-.35-.5A5,5,0,0,1,114,10.28"/><polygon class="cls-1" points="183.14 3.41 183.14 15.65 180.69 15.65 180.69 7.11 177.55 15.65 175.41 15.65 172.27 7.15 172.27 15.65 169.8 15.65 169.8 3.41 172.79 3.41 176.51 12.62 180.16 3.41 183.14 3.41"/><path class="cls-1" d="M185.53,2.18a1.54,1.54,0,0,1,1.1-.38,1.56,1.56,0,0,1,1.11.38,1.24,1.24,0,0,1,.42,1,1.21,1.21,0,0,1-.42.95,1.56,1.56,0,0,1-1.11.38,1.54,1.54,0,0,1-1.1-.38,1.21,1.21,0,0,1-.42-.95,1.24,1.24,0,0,1,.42-1m2.33,13.47h-2.47V5.94h2.47Z"/><path class="cls-1" d="M198.58,6.9a4.5,4.5,0,0,1,1,3.11v5.64h-2.46V10.29a2.54,2.54,0,0,0-.6-1.8,2.1,2.1,0,0,0-1.63-.64,2.19,2.19,0,0,0-1.68.68,2.81,2.81,0,0,0-.63,2v5.15H190.1V5.94h2.48V7.89a3.06,3.06,0,0,1,1.27-1.54,3.76,3.76,0,0,1,2-.55,3.48,3.48,0,0,1,2.69,1.1"/><path class="cls-1" d="M201.89,2.18a1.8,1.8,0,0,1,2.21,0,1.24,1.24,0,0,1,.42,1,1.21,1.21,0,0,1-.42.95,1.8,1.8,0,0,1-2.21,0,1.21,1.21,0,0,1-.42-.95,1.24,1.24,0,0,1,.42-1m2.33,13.47h-2.47V5.94h2.47Z"/><path class="cls-1" d="M212.66,6.71A3.87,3.87,0,0,1,214,9.1h-2.31A2,2,0,0,0,211.05,8a1.93,1.93,0,0,0-1.29-.42,1.47,1.47,0,0,0-1,.3,1,1,0,0,0-.35.81.82.82,0,0,0,.28.65,2,2,0,0,0,.7.38c.28.09.69.21,1.21.33a13.27,13.27,0,0,1,1.8.52,3.06,3.06,0,0,1,1.2.86,2.38,2.38,0,0,1,.49,1.59,2.43,2.43,0,0,1-1,2,4.07,4.07,0,0,1-2.62.78,5,5,0,0,1-3-.85,3.57,3.57,0,0,1-1.38-2.43h2.37a1.58,1.58,0,0,0,.63,1.13,2.3,2.3,0,0,0,1.42.41,1.34,1.34,0,0,0,1-.31,1,1,0,0,0,.34-.8.89.89,0,0,0-.29-.68,2.1,2.1,0,0,0-.72-.4c-.29-.09-.69-.21-1.22-.34a12.82,12.82,0,0,1-1.76-.5,2.75,2.75,0,0,1-1.16-.81,2.31,2.31,0,0,1-.48-1.54,2.54,2.54,0,0,1,1-2.06,4.12,4.12,0,0,1,2.67-.78,4.26,4.26,0,0,1,2.84.89"/><path class="cls-1" d="M221.15,13.53v2.12h-1.3a3.62,3.62,0,0,1-2.5-.78,3.44,3.44,0,0,1-.87-2.64V8h-1.35V5.94h1.35V3.54H219v2.4h2.17V8H219v4.25a1.34,1.34,0,0,0,.28,1,1.27,1.27,0,0,0,.94.28Z"/><path class="cls-1" d="M232,11.27h-7.12a2.66,2.66,0,0,0,.7,1.91,2.24,2.24,0,0,0,1.61.61,2.33,2.33,0,0,0,1.43-.42,1.88,1.88,0,0,0,.73-1.14h2.61a4.19,4.19,0,0,1-2.44,3.09,5.52,5.52,0,0,1-4.73-.15A4.22,4.22,0,0,1,223,13.44a5.39,5.39,0,0,1-.61-2.64A5.47,5.47,0,0,1,223,8.14a4.16,4.16,0,0,1,1.72-1.73,5.22,5.22,0,0,1,2.53-.59,5.09,5.09,0,0,1,2.51.59,4.25,4.25,0,0,1,1.67,1.64,4.79,4.79,0,0,1,.58,2.38,4.54,4.54,0,0,1-.08.84m-3-2.89a2.36,2.36,0,0,0-1.65-.62,2.34,2.34,0,0,0-2.44,2.42h4.71a2.14,2.14,0,0,0-.62-1.8"/><path class="cls-1" d="M237.72,6.33a3.88,3.88,0,0,1,2-.53V8.45H239c-1.81,0-2.72.84-2.72,2.52v4.68h-2.47V5.94h2.47V7.8a4.06,4.06,0,0,1,1.44-1.47"/><path class="cls-1" d="M241.23,2.18a1.8,1.8,0,0,1,2.21,0,1.24,1.24,0,0,1,.42,1,1.21,1.21,0,0,1-.42.95,1.8,1.8,0,0,1-2.21,0,1.21,1.21,0,0,1-.42-.95,1.24,1.24,0,0,1,.42-1m2.33,13.47h-2.47V5.94h2.47Z"/><path class="cls-1" d="M252.85,6.41a4.42,4.42,0,0,1,1.78,1.73,5.27,5.27,0,0,1,.64,2.66,5.19,5.19,0,0,1-.64,2.64,4.48,4.48,0,0,1-1.78,1.73,5.66,5.66,0,0,1-5.11,0A4.48,4.48,0,0,1,246,13.44a5.19,5.19,0,0,1-.65-2.64A5.27,5.27,0,0,1,246,8.14a4.42,4.42,0,0,1,1.78-1.73,5.83,5.83,0,0,1,5.11,0m-4.31,2.27a2.9,2.9,0,0,0-.72,2.12,2.89,2.89,0,0,0,.72,2.11,2.47,2.47,0,0,0,3.51,0,2.89,2.89,0,0,0,.72-2.11,2.9,2.9,0,0,0-.72-2.12,2.47,2.47,0,0,0-3.51,0"/><path class="cls-1" d="M266.75,6.39A3.33,3.33,0,0,1,268,8V2.68h2.45v13H268v-2a3.35,3.35,0,0,1-1.26,1.57,3.64,3.64,0,0,1-2.09.59,4.14,4.14,0,0,1-2.21-.6,4,4,0,0,1-1.54-1.73,6.09,6.09,0,0,1-.55-2.65,6.1,6.1,0,0,1,.55-2.66,4,4,0,0,1,1.54-1.73,4.13,4.13,0,0,1,2.21-.59,3.71,3.71,0,0,1,2.09.57m-3.18,2.34a2.9,2.9,0,0,0-.7,2.07,2.89,2.89,0,0,0,.7,2.06,2.46,2.46,0,0,0,1.86.74,2.43,2.43,0,0,0,1.85-.76,2.86,2.86,0,0,0,.73-2,2.9,2.9,0,0,0-.73-2.07A2.46,2.46,0,0,0,265.43,8a2.41,2.41,0,0,0-1.86.76"/><path class="cls-1" d="M281.76,11.27h-7.12a2.66,2.66,0,0,0,.7,1.91,2.24,2.24,0,0,0,1.61.61,2.33,2.33,0,0,0,1.43-.42,1.84,1.84,0,0,0,.73-1.14h2.61a4.19,4.19,0,0,1-2.44,3.09,5.52,5.52,0,0,1-4.73-.15,4.22,4.22,0,0,1-1.72-1.73,5.39,5.39,0,0,1-.61-2.64,5.47,5.47,0,0,1,.61-2.66,4.16,4.16,0,0,1,1.72-1.73,5.22,5.22,0,0,1,2.53-.59,5.09,5.09,0,0,1,2.51.59,4.25,4.25,0,0,1,1.67,1.64,4.8,4.8,0,0,1,.59,2.38,4.63,4.63,0,0,1-.09.84m-3-2.89a2.36,2.36,0,0,0-1.65-.62,2.45,2.45,0,0,0-1.69.62,2.48,2.48,0,0,0-.75,1.8h4.71a2.14,2.14,0,0,0-.62-1.8"/><rect class="cls-1" x="287.42" y="3.27" width="2.47" height="12.38"/><path class="cls-1" d="M298.05,6.39A3.25,3.25,0,0,1,299.3,8v-2h2.45v9.75a5.49,5.49,0,0,1-.53,2.43,4,4,0,0,1-1.6,1.69,5,5,0,0,1-2.57.62,5.39,5.39,0,0,1-3.4-1,4.11,4.11,0,0,1-1.58-2.71h2.44a2,2,0,0,0,.81,1.15,2.75,2.75,0,0,0,1.55.41,2.47,2.47,0,0,0,1.76-.64,2.61,2.61,0,0,0,.67-1.94V13.62a3.27,3.27,0,0,1-1.25,1.57,3.73,3.73,0,0,1-2.11.59,4.13,4.13,0,0,1-2.2-.6,4,4,0,0,1-1.54-1.73,6,6,0,0,1-.55-2.65,6,6,0,0,1,.55-2.66,4,4,0,0,1,1.54-1.73,4.12,4.12,0,0,1,2.2-.59,3.8,3.8,0,0,1,2.11.57m-3.19,2.34a2.9,2.9,0,0,0-.7,2.07,2.89,2.89,0,0,0,.7,2.06,2.67,2.67,0,0,0,3.71,0,2.86,2.86,0,0,0,.73-2,2.9,2.9,0,0,0-.73-2.07A2.5,2.5,0,0,0,296.72,8a2.39,2.39,0,0,0-1.86.76"/><path class="cls-1" d="M313.29,5.94v9.71h-2.47v-2a3.08,3.08,0,0,1-1.27,1.53,3.8,3.8,0,0,1-2.05.56,3.43,3.43,0,0,1-2.68-1.11,4.39,4.39,0,0,1-1-3.08V5.94h2.46V11.3a2.51,2.51,0,0,0,.59,1.8,2.09,2.09,0,0,0,1.61.64,2.23,2.23,0,0,0,1.71-.68,2.81,2.81,0,0,0,.63-2V5.94Z"/><path class="cls-1" d="M321.45,6.39A3.17,3.17,0,0,1,322.69,8v-2h2.46v9.71h-2.46v-2a3.2,3.2,0,0,1-1.24,1.57,3.73,3.73,0,0,1-2.11.59,4.16,4.16,0,0,1-2.21-.6,4,4,0,0,1-1.53-1.73,6,6,0,0,1-.55-2.65,6,6,0,0,1,.55-2.66,4,4,0,0,1,1.53-1.73,4.16,4.16,0,0,1,2.21-.59,3.8,3.8,0,0,1,2.11.57m-3.2,2.34a3,3,0,0,0-.7,2.07,2.94,2.94,0,0,0,.7,2.06,2.46,2.46,0,0,0,1.86.74,2.43,2.43,0,0,0,1.85-.76,2.82,2.82,0,0,0,.73-2A2.86,2.86,0,0,0,322,8.73,2.46,2.46,0,0,0,320.11,8a2.41,2.41,0,0,0-1.86.76"/><rect class="cls-1" x="327.39" y="2.68" width="2.47" height="12.98"/><path class="cls-1" d="M338,6.39A3.33,3.33,0,0,1,339.27,8V2.68h2.45v13h-2.45v-2A3.35,3.35,0,0,1,338,15.19a3.67,3.67,0,0,1-2.09.59,4.14,4.14,0,0,1-2.21-.6,4,4,0,0,1-1.54-1.73,6,6,0,0,1-.55-2.65,6,6,0,0,1,.55-2.66,4,4,0,0,1,1.54-1.73,4.13,4.13,0,0,1,2.21-.59,3.74,3.74,0,0,1,2.09.57m-3.18,2.34a2.9,2.9,0,0,0-.7,2.07,2.89,2.89,0,0,0,.7,2.06,2.67,2.67,0,0,0,3.71,0,2.86,2.86,0,0,0,.73-2,2.9,2.9,0,0,0-.73-2.07A2.48,2.48,0,0,0,336.69,8a2.41,2.41,0,0,0-1.86.76"/><path class="cls-1" d="M349.87,6.39A3.19,3.19,0,0,1,351.12,8v-2h2.46v9.71h-2.46v-2a3.22,3.22,0,0,1-1.25,1.57,3.68,3.68,0,0,1-2.1.59,4.14,4.14,0,0,1-2.21-.6A4.07,4.07,0,0,1,344,13.45a6.09,6.09,0,0,1-.55-2.65A6.1,6.1,0,0,1,344,8.14a4.07,4.07,0,0,1,1.54-1.73,4.13,4.13,0,0,1,2.21-.59,3.75,3.75,0,0,1,2.1.57m-3.19,2.34a2.9,2.9,0,0,0-.7,2.07,2.89,2.89,0,0,0,.7,2.06,2.46,2.46,0,0,0,1.86.74,2.43,2.43,0,0,0,1.85-.76,2.82,2.82,0,0,0,.73-2,2.86,2.86,0,0,0-.73-2.07A2.46,2.46,0,0,0,348.54,8a2.41,2.41,0,0,0-1.86.76"/><path class="cls-1" d="M361.72,6.39A3.33,3.33,0,0,1,363,8V2.68h2.45v13H363v-2a3.35,3.35,0,0,1-1.26,1.57,3.64,3.64,0,0,1-2.09.59,4.14,4.14,0,0,1-2.21-.6,4,4,0,0,1-1.54-1.73,6,6,0,0,1-.55-2.65,6,6,0,0,1,.55-2.66,4,4,0,0,1,1.54-1.73,4.13,4.13,0,0,1,2.21-.59,3.71,3.71,0,0,1,2.09.57m-3.18,2.34a2.9,2.9,0,0,0-.7,2.07,2.89,2.89,0,0,0,.7,2.06,2.67,2.67,0,0,0,3.71,0,2.86,2.86,0,0,0,.73-2,2.9,2.9,0,0,0-.73-2.07A2.48,2.48,0,0,0,360.4,8a2.41,2.41,0,0,0-1.86.76"/><path class="cls-1" d="M369.66,16a2.76,2.76,0,0,1-.57,1.79,2.14,2.14,0,0,1-1.77.7v-.95a.87.87,0,0,0,.67-.22,1.1,1.1,0,0,0,.21-.78v-.17h-1.12V14.06h2.16a4.68,4.68,0,0,1,.42,1.91"/><path class="cls-1" d="M179.28,25.31a4.93,4.93,0,0,1,1.92,3h-2.6A2.9,2.9,0,0,0,177.43,27a3.41,3.41,0,0,0-1.88-.51,3.55,3.55,0,0,0-1.89.5,3.25,3.25,0,0,0-1.29,1.4,4.78,4.78,0,0,0-.45,2.14,4.2,4.2,0,0,0,1,3,3.76,3.76,0,0,0,2.85,1.09,3.47,3.47,0,0,0,2.29-.79,3.69,3.69,0,0,0,1.24-2.19h-4.19V29.88h6.26v2.38a5.81,5.81,0,0,1-1,2.26,5.44,5.44,0,0,1-2,1.66,6.14,6.14,0,0,1-2.83.62,6.38,6.38,0,0,1-3.22-.79,5.58,5.58,0,0,1-2.16-2.23,7.41,7.41,0,0,1,0-6.54A5.59,5.59,0,0,1,172.32,25a6.24,6.24,0,0,1,3.21-.8,6.09,6.09,0,0,1,3.75,1.11"/><path class="cls-1" d="M192.31,32.31h-7.12a2.68,2.68,0,0,0,.71,1.92,2.29,2.29,0,0,0,1.61.61,2.35,2.35,0,0,0,1.43-.42,1.88,1.88,0,0,0,.73-1.14h2.61a4,4,0,0,1-.83,1.82,4.27,4.27,0,0,1-1.62,1.27,5.24,5.24,0,0,1-2.2.45,5.19,5.19,0,0,1-2.52-.6,4.28,4.28,0,0,1-1.72-1.73,5.43,5.43,0,0,1-.62-2.65,5.5,5.5,0,0,1,.62-2.66,4.13,4.13,0,0,1,1.72-1.72,5.19,5.19,0,0,1,2.52-.6,5.11,5.11,0,0,1,2.52.6,4.18,4.18,0,0,1,1.67,1.64,4.73,4.73,0,0,1,.58,2.37,4.46,4.46,0,0,1-.09.84m-3-2.89a2.36,2.36,0,0,0-1.66-.61,2.43,2.43,0,0,0-1.68.61,2.51,2.51,0,0,0-.76,1.81h4.72a2.17,2.17,0,0,0-.62-1.81m1-5.07-4,1.9V24.56l4-2.1Z"/><path class="cls-1" d="M202.63,28a4.48,4.48,0,0,1,1,3.1V36.7h-2.46V31.33a2.54,2.54,0,0,0-.59-1.79,2.13,2.13,0,0,0-1.63-.65,2.17,2.17,0,0,0-1.69.69,2.78,2.78,0,0,0-.63,2V36.7h-2.47V27h2.47v1.95a3.15,3.15,0,0,1,1.27-1.54,3.84,3.84,0,0,1,2-.55A3.44,3.44,0,0,1,202.63,28"/><path class="cls-1" d="M214.85,32.32h-7.12a2.72,2.72,0,0,0,.7,1.91,2.31,2.31,0,0,0,1.62.61,2.35,2.35,0,0,0,1.43-.42,1.83,1.83,0,0,0,.72-1.14h2.62A4.15,4.15,0,0,1,214,35.1a4.35,4.35,0,0,1-1.62,1.27,5.62,5.62,0,0,1-4.73-.15,4.34,4.34,0,0,1-1.72-1.73,5.43,5.43,0,0,1-.61-2.65,5.5,5.5,0,0,1,.61-2.66,4.19,4.19,0,0,1,1.72-1.72,5.23,5.23,0,0,1,2.53-.6,5.11,5.11,0,0,1,2.52.6,4.16,4.16,0,0,1,1.66,1.64,4.73,4.73,0,0,1,.59,2.37,4.65,4.65,0,0,1-.09.85m-3-2.9a2.59,2.59,0,0,0-3.34,0,2.51,2.51,0,0,0-.76,1.81h4.72a2.2,2.2,0,0,0-.62-1.81"/><path class="cls-1" d="M220.6,27.38a3.82,3.82,0,0,1,2-.54v2.65h-.72c-1.81,0-2.71.84-2.71,2.53V36.7h-2.48V27h2.48v1.86a4.09,4.09,0,0,1,1.43-1.46"/><path class="cls-1" d="M231,27.46a4.27,4.27,0,0,1,1.78,1.72,5.19,5.19,0,0,1,.65,2.66,5.13,5.13,0,0,1-.65,2.65A4.42,4.42,0,0,1,231,36.22a5.72,5.72,0,0,1-5.1,0,4.49,4.49,0,0,1-1.78-1.73,5.23,5.23,0,0,1-.65-2.65,5.29,5.29,0,0,1,.65-2.66,4.33,4.33,0,0,1,1.78-1.72,5.72,5.72,0,0,1,5.1,0m-4.3,2.27a2.87,2.87,0,0,0-.72,2.11,2.87,2.87,0,0,0,.72,2.11,2.46,2.46,0,0,0,3.5,0,2.87,2.87,0,0,0,.72-2.11,2.87,2.87,0,0,0-.72-2.11,2.46,2.46,0,0,0-3.5,0"/><polygon class="cls-1" points="240.68 26.98 243.33 33.58 245.79 26.98 248.51 26.98 242.56 41.33 239.82 41.33 242.02 36.42 237.93 26.98 240.68 26.98"/><path class="cls-1" d="M263.79,33.74a5.39,5.39,0,0,1-2.23,2.18,7.33,7.33,0,0,1-3.48.78h-4.41V24.32h4.41a7.44,7.44,0,0,1,3.48.76,5.28,5.28,0,0,1,2.23,2.16,6.54,6.54,0,0,1,.77,3.25,6.59,6.59,0,0,1-.77,3.25m-2.83-.3a3.91,3.91,0,0,0,1.1-2.95,3.92,3.92,0,0,0-1.1-3,4.3,4.3,0,0,0-3.1-1.06h-1.71v8h1.71a4.29,4.29,0,0,0,3.1-1.05"/><path class="cls-1" d="M266.56,23.22a1.61,1.61,0,0,1,1.11-.38,1.58,1.58,0,0,1,1.1.38,1.22,1.22,0,0,1,.42,1,1.19,1.19,0,0,1-.42.95,1.58,1.58,0,0,1-1.1.38,1.61,1.61,0,0,1-1.11-.38,1.22,1.22,0,0,1-.42-.95,1.26,1.26,0,0,1,.42-1M268.9,36.7h-2.48V27h2.48Z"/><polygon class="cls-1" points="275.37 34.23 277.82 26.98 280.45 26.98 276.86 36.7 273.84 36.7 270.25 26.98 272.89 26.98 275.37 34.23"/><path class="cls-1" d="M290.87,32.32h-7.12a2.72,2.72,0,0,0,.7,1.91,2.31,2.31,0,0,0,1.62.61,2.35,2.35,0,0,0,1.43-.42,1.83,1.83,0,0,0,.72-1.14h2.62A4.15,4.15,0,0,1,290,35.1a4.35,4.35,0,0,1-1.62,1.27,5.62,5.62,0,0,1-4.73-.15,4.34,4.34,0,0,1-1.72-1.73,5.43,5.43,0,0,1-.61-2.65,5.5,5.5,0,0,1,.61-2.66,4.19,4.19,0,0,1,1.72-1.72,5.23,5.23,0,0,1,2.53-.6,5.11,5.11,0,0,1,2.52.6,4.16,4.16,0,0,1,1.66,1.64,4.73,4.73,0,0,1,.59,2.37,4.65,4.65,0,0,1-.09.85m-3-2.9a2.59,2.59,0,0,0-3.34,0,2.51,2.51,0,0,0-.76,1.81h4.72a2.2,2.2,0,0,0-.62-1.81"/><path class="cls-1" d="M296.62,27.38a3.82,3.82,0,0,1,2-.54v2.65h-.72c-1.81,0-2.71.84-2.71,2.53V36.7h-2.48V27h2.48v1.86a4.09,4.09,0,0,1,1.43-1.46"/><path class="cls-1" d="M306.18,27.75a3.84,3.84,0,0,1,1.33,2.39H305.2a1.88,1.88,0,0,0-.63-1.12,1.92,1.92,0,0,0-1.28-.42,1.51,1.51,0,0,0-1,.29,1,1,0,0,0-.35.81.83.83,0,0,0,.27.65,2.11,2.11,0,0,0,.71.39c.28.09.68.2,1.21.33a12.14,12.14,0,0,1,1.79.52,2.9,2.9,0,0,1,1.2.86,2.37,2.37,0,0,1,.5,1.58,2.46,2.46,0,0,1-1,2,4,4,0,0,1-2.62.77,4.93,4.93,0,0,1-3-.85,3.62,3.62,0,0,1-1.39-2.43H302a1.6,1.6,0,0,0,.63,1.13,2.26,2.26,0,0,0,1.42.42,1.43,1.43,0,0,0,1-.31,1,1,0,0,0,.33-.8.88.88,0,0,0-.29-.68,1.94,1.94,0,0,0-.72-.41c-.29-.09-.69-.2-1.22-.33a13.25,13.25,0,0,1-1.76-.5,2.77,2.77,0,0,1-1.16-.82,2.27,2.27,0,0,1-.48-1.54,2.54,2.54,0,0,1,1-2.05,4.1,4.1,0,0,1,2.67-.79,4.31,4.31,0,0,1,2.84.89"/><path class="cls-1" d="M309.62,23.22a1.8,1.8,0,0,1,2.21,0,1.26,1.26,0,0,1,.42,1,1.22,1.22,0,0,1-.42.95,1.8,1.8,0,0,1-2.21,0,1.22,1.22,0,0,1-.42-.95,1.26,1.26,0,0,1,.42-1M312,36.7h-2.47V27H312Z"/><path class="cls-1" d="M320.1,27.44A3.26,3.26,0,0,1,321.35,29V23.72h2.46v13h-2.46v-2a3.36,3.36,0,0,1-1.25,1.58,3.67,3.67,0,0,1-2.1.58,4.25,4.25,0,0,1-2.21-.59,4.11,4.11,0,0,1-1.53-1.73,6.71,6.71,0,0,1,0-5.32,4,4,0,0,1,1.53-1.72,4.16,4.16,0,0,1,2.21-.6,3.67,3.67,0,0,1,2.1.58m-3.18,2.33a2.9,2.9,0,0,0-.71,2.07,2.86,2.86,0,0,0,.71,2.06,2.4,2.4,0,0,0,1.85.75,2.47,2.47,0,0,0,1.86-.77,2.84,2.84,0,0,0,.72-2,2.89,2.89,0,0,0-.72-2.06,2.47,2.47,0,0,0-1.86-.76,2.4,2.4,0,0,0-1.85.75"/><path class="cls-1" d="M332,27.44A3.15,3.15,0,0,1,333.21,29V27h2.45V36.7h-2.45v-2A3.24,3.24,0,0,1,332,36.24a3.67,3.67,0,0,1-2.1.58,4.22,4.22,0,0,1-2.21-.59,4.06,4.06,0,0,1-1.54-1.73,6.71,6.71,0,0,1,0-5.32,4,4,0,0,1,1.54-1.72,4.14,4.14,0,0,1,2.21-.6,3.67,3.67,0,0,1,2.1.58m-3.19,2.33a2.9,2.9,0,0,0-.7,2.07,2.86,2.86,0,0,0,.7,2.06,2.64,2.64,0,0,0,3.71,0,2.84,2.84,0,0,0,.73-2,2.89,2.89,0,0,0-.73-2.06,2.66,2.66,0,0,0-3.71,0"/><path class="cls-1" d="M343.81,27.44A3.2,3.2,0,0,1,345.06,29V23.72h2.46v13h-2.46v-2a3.3,3.3,0,0,1-1.25,1.58,3.67,3.67,0,0,1-2.1.58,4.25,4.25,0,0,1-2.21-.59A4.11,4.11,0,0,1,338,34.5a6.71,6.71,0,0,1,0-5.32,4,4,0,0,1,1.53-1.72,4.16,4.16,0,0,1,2.21-.6,3.67,3.67,0,0,1,2.1.58m-3.18,2.33a2.9,2.9,0,0,0-.71,2.07,2.86,2.86,0,0,0,.71,2.06,2.4,2.4,0,0,0,1.86.75,2.47,2.47,0,0,0,1.85-.77,2.84,2.84,0,0,0,.72-2,2.89,2.89,0,0,0-.72-2.06,2.46,2.46,0,0,0-1.85-.76,2.4,2.4,0,0,0-1.86.75"/></g></g></svg>