<svg xmlns="http://www.w3.org/2000/svg" viewBox="0 0 329.84 82.9"><defs><style>.cls-1{fill:#fff;}</style></defs><title>Recurso 5</title><g id="Capa_2" data-name="Capa 2"><g id="_1" data-name="1"><path class="cls-1" d="M84,41.58a20.32,20.32,0,0,1-1.07,6.9,23.32,23.32,0,0,1-3.29,6.19,34.48,34.48,0,0,1-10.56,9.22,51.59,51.59,0,0,1-13,5.23,62.57,62.57,0,0,1-14,1.81A69.69,69.69,0,0,1,35,70.69a60.13,60.13,0,0,1-7-1,45,45,0,0,1-13.35-5A33,33,0,0,1,3.91,55.1,22.63,22.63,0,0,1,.76,48.62a18.31,18.31,0,0,1-.66-7H.45a21.21,21.21,0,0,0,1.81,6.49c.23.5.49,1,.74,1.48l.43.71c.14.24.28.48.44.7.32.46.61.92,1,1.35l.5.66.54.63a35.2,35.2,0,0,0,10.42,8,59,59,0,0,0,12.44,4.7A57.78,57.78,0,0,0,42,68.13a60.05,60.05,0,0,0,13.44-1.28,49.16,49.16,0,0,0,12.74-4.49A33.16,33.16,0,0,0,78.75,54a22.74,22.74,0,0,0,3.46-5.8,19.77,19.77,0,0,0,1.41-6.64Z"/><path class="cls-1" d="M95.27,21.27v3.19h5v1.66h-5v4.53H93.4v-11h7.42v1.67Z"/><path class="cls-1" d="M117.08,30.65h-1.81V29a3.09,3.09,0,0,1-3,1.71,3,3,0,0,1-2.26-.87,3.3,3.3,0,0,1-.82-2.37V22.25H111V27a2,2,0,0,0,.52,1.49A1.88,1.88,0,0,0,113,29a2.12,2.12,0,0,0,1.68-.75,2.76,2.76,0,0,0,.63-1.86V22.25h1.81Z"/><path class="cls-1" d="M134.05,23.05a3.27,3.27,0,0,1,.84,2.37v5.23h-1.82V25.93a2,2,0,0,0-.54-1.49,2,2,0,0,0-1.48-.55,2.32,2.32,0,0,0-1.65.65,2.57,2.57,0,0,0-.73,1.64v4.47h-1.82v-8.4h1.82v1.61a3.16,3.16,0,0,1,3.09-1.67A3,3,0,0,1,134.05,23.05Z"/><path class="cls-1" d="M152.4,30.65h-1.81V29.21a3.05,3.05,0,0,1-1.21,1.13,3.84,3.84,0,0,1-1.74.38,4,4,0,0,1-2.11-.54,3.77,3.77,0,0,1-1.41-1.52,4.89,4.89,0,0,1-.5-2.24,4.77,4.77,0,0,1,.5-2.21,3.78,3.78,0,0,1,1.41-1.5,4,4,0,0,1,2.08-.54,3.73,3.73,0,0,1,1.75.4,3.2,3.2,0,0,1,1.23,1.14V18.94h1.81Zm-2.53-2.2a2.76,2.76,0,0,0,.72-2,2.81,2.81,0,0,0-.72-2,2.44,2.44,0,0,0-1.86-.77,2.41,2.41,0,0,0-1.85.78,3,3,0,0,0,0,3.95,2.64,2.64,0,0,0,3.71,0Z"/><path class="cls-1" d="M167.28,29.62a3.35,3.35,0,0,1-2.77,1.1,3.38,3.38,0,0,1-1.56-.34,2.49,2.49,0,0,1-1-.92,2.54,2.54,0,0,1-.36-1.34,2.24,2.24,0,0,1,.83-1.83,3.7,3.7,0,0,1,2.34-.69h2.54v-.25a1.58,1.58,0,0,0-.52-1.25,2.25,2.25,0,0,0-1.49-.44,4.38,4.38,0,0,0-2.47.85L162,23.24a8.66,8.66,0,0,1,1.73-.81,6.39,6.39,0,0,1,1.89-.24,3.64,3.64,0,0,1,2.49.78,2.78,2.78,0,0,1,.9,2.17l0,5.51h-1.79Zm-.76-.78a1.58,1.58,0,0,0,.75-1.14v-.77H165a2.57,2.57,0,0,0-1.31.25.94.94,0,0,0-.42.86,1.09,1.09,0,0,0,.44.91,1.85,1.85,0,0,0,1.19.34A2.86,2.86,0,0,0,166.52,28.84Z"/><path class="cls-1" d="M184,22.54a3.88,3.88,0,0,1,1.47,1l-1,1.17a3.14,3.14,0,0,0-2.34-.95,2.43,2.43,0,0,0-1.83.75,2.65,2.65,0,0,0-.72,1.93,2.72,2.72,0,0,0,.7,1.94,2.35,2.35,0,0,0,1.79.74,3,3,0,0,0,2.47-1l1,1a3.66,3.66,0,0,1-1.47,1.16,5.09,5.09,0,0,1-2.09.41,4.39,4.39,0,0,1-2.19-.54,3.8,3.8,0,0,1-1.5-1.5,4.41,4.41,0,0,1-.53-2.21,4.51,4.51,0,0,1,.53-2.23,3.86,3.86,0,0,1,1.5-1.5,4.39,4.39,0,0,1,2.19-.54A5.44,5.44,0,0,1,184,22.54Z"/><path class="cls-1" d="M196.24,19.06a1.1,1.1,0,0,1,.3.8,1,1,0,0,1-.3.77,1,1,0,0,1-.76.31,1,1,0,0,1-.76-.3,1.09,1.09,0,0,1-.3-.78,1.1,1.1,0,0,1,.3-.8,1.09,1.09,0,0,1,1.52,0Zm-1.66,11.59v-8.4h1.81v8.4Z"/><path class="cls-1" d="M212,22.73a3.9,3.9,0,0,1,1.54,1.5,4.35,4.35,0,0,1,.55,2.22,4.4,4.4,0,0,1-.55,2.22,3.9,3.9,0,0,1-1.54,1.5,5.08,5.08,0,0,1-4.56,0,3.86,3.86,0,0,1-1.55-1.5,4.4,4.4,0,0,1-.55-2.22,4.35,4.35,0,0,1,.55-2.22,3.86,3.86,0,0,1,1.55-1.5,5.08,5.08,0,0,1,4.56,0Zm-4.13,1.78a2.73,2.73,0,0,0-.72,1.95,2.77,2.77,0,0,0,.72,2,2.63,2.63,0,0,0,3.7,0,2.81,2.81,0,0,0,.71-2,2.7,2.7,0,0,0-.72-1.95,2.41,2.41,0,0,0-1.84-.76A2.46,2.46,0,0,0,207.9,24.51Zm2.41-3.45H208.7l1.67-2.34,1.86.79Z"/><path class="cls-1" d="M230.31,23.05a3.27,3.27,0,0,1,.84,2.37v5.23h-1.82V25.93a2,2,0,0,0-.54-1.49,2,2,0,0,0-1.48-.55,2.32,2.32,0,0,0-1.65.65,2.57,2.57,0,0,0-.73,1.64v4.47h-1.82v-8.4h1.82v1.61A3.16,3.16,0,0,1,228,22.19,3,3,0,0,1,230.31,23.05Z"/><path class="cls-1" d="M104.87,53.36l0-8.62L101.67,52h-2.2l-3.18-7.3v8.62h-3V40.09H97L100.57,48l3.6-7.89h3.66V53.36Z"/><path class="cls-1" d="M113.37,39a1.71,1.71,0,0,1,.48,1.25A1.66,1.66,0,0,1,112.12,42a1.66,1.66,0,0,1-1.24-.49,1.69,1.69,0,0,1-.48-1.24,1.71,1.71,0,0,1,.48-1.25,1.69,1.69,0,0,1,1.24-.48A1.71,1.71,0,0,1,113.37,39Zm-2.89,14.38V43.16h3.26v10.2Z"/><path class="cls-1" d="M123.5,43.64a4.47,4.47,0,0,1,1.85,1.7L123,46.75a2.36,2.36,0,0,0-2.06-1,1.92,1.92,0,0,0-1.54.7,2.8,2.8,0,0,0-.6,1.87,2.86,2.86,0,0,0,.59,1.88,1.87,1.87,0,0,0,1.55.71A2.2,2.2,0,0,0,123,49.71l2.38,1.39a4.22,4.22,0,0,1-1.82,1.75,6.11,6.11,0,0,1-2.82.62,5.69,5.69,0,0,1-2.74-.65A4.72,4.72,0,0,1,116.17,51a5.41,5.41,0,0,1-.66-2.71,5.56,5.56,0,0,1,.66-2.74A4.54,4.54,0,0,1,118,43.7a5.65,5.65,0,0,1,2.77-.66A5.88,5.88,0,0,1,123.5,43.64Z"/><path class="cls-1" d="M134.64,44a3.39,3.39,0,0,1,1.19,2.71v6.67h-3.2V52.18a3.08,3.08,0,0,1-1.28,1,4.79,4.79,0,0,1-1.84.34,3.59,3.59,0,0,1-2.56-.89,3,3,0,0,1-1-2.31A2.73,2.73,0,0,1,127,48a4.66,4.66,0,0,1,2.9-.82h2.69v-.15a1.45,1.45,0,0,0-.5-1.18,2.26,2.26,0,0,0-1.49-.42,5.83,5.83,0,0,0-1.45.21,8.22,8.22,0,0,0-1.6.64l-.92-2.16a13.08,13.08,0,0,1,2.38-.87,9.51,9.51,0,0,1,2.35-.28A4.92,4.92,0,0,1,134.64,44Zm-2.76,6.93a1.66,1.66,0,0,0,.73-1V49h-2.06a1.9,1.9,0,0,0-1.11.26,1,1,0,0,0-.37.84,1.1,1.1,0,0,0,.38.88,1.56,1.56,0,0,0,1.06.33A2.42,2.42,0,0,0,131.88,50.91Z"/><path class="cls-1" d="M146.45,44.49a5.73,5.73,0,0,1,1.34,4c0,.27,0,.48,0,.61H140.6a2.49,2.49,0,0,0,.87,1.4A2.36,2.36,0,0,0,143,51a3.35,3.35,0,0,0,1.3-.26,3.6,3.6,0,0,0,1.14-.79l1.72,1.7A5.34,5.34,0,0,1,145.23,53a6.81,6.81,0,0,1-2.52.46,6.15,6.15,0,0,1-2.86-.64A4.61,4.61,0,0,1,138,51a6,6,0,0,1,0-5.47,4.63,4.63,0,0,1,1.88-1.84,5.65,5.65,0,0,1,2.77-.66A5,5,0,0,1,146.45,44.49Zm-2.36,1.39a2.08,2.08,0,0,0-2.83,0,2.66,2.66,0,0,0-.73,1.51h4.1A2.09,2.09,0,0,0,144.09,45.88Z"/><path class="cls-1" d="M149.64,53.36v-14h3.27v14Z"/><path class="cls-1" d="M163.45,44a3.38,3.38,0,0,1,1.18,2.71v6.67h-3.19V52.18a3.11,3.11,0,0,1-1.29,1,4.75,4.75,0,0,1-1.84.34,3.58,3.58,0,0,1-2.55-.89,3,3,0,0,1-.95-2.31,2.75,2.75,0,0,1,1-2.27,4.71,4.71,0,0,1,2.91-.82h2.69v-.15a1.48,1.48,0,0,0-.5-1.18,2.26,2.26,0,0,0-1.49-.42,5.83,5.83,0,0,0-1.45.21,8,8,0,0,0-1.6.64l-.92-2.16a13.27,13.27,0,0,1,2.37-.87,9.6,9.6,0,0,1,2.36-.28A4.92,4.92,0,0,1,163.45,44Zm-2.77,6.93a1.63,1.63,0,0,0,.74-1V49h-2.06a1.88,1.88,0,0,0-1.11.26,1,1,0,0,0-.37.84,1.1,1.1,0,0,0,.38.88,1.55,1.55,0,0,0,1.06.33A2.39,2.39,0,0,0,160.68,50.91Z"/><path class="cls-1" d="M183.08,46.62v5.17a10,10,0,0,1-2.6,1.24,9.62,9.62,0,0,1-2.91.48,7.39,7.39,0,0,1-3.6-.89,6.58,6.58,0,0,1-3.48-5.89,6.34,6.34,0,0,1,1-3.43,6.72,6.72,0,0,1,2.62-2.42A7.82,7.82,0,0,1,177.8,40a8.39,8.39,0,0,1,2.94.54A7.57,7.57,0,0,1,183.21,42l-1.88,2.29a5.63,5.63,0,0,0-1.67-1,4.9,4.9,0,0,0-1.87-.39,3.8,3.8,0,0,0-2,.53,3.64,3.64,0,0,0-1.38,1.4,4.23,4.23,0,0,0,0,4,3.82,3.82,0,0,0,1.4,1.42,3.89,3.89,0,0,0,2,.52,4.43,4.43,0,0,0,1.13-.17,7.64,7.64,0,0,0,1.22-.47V46.62Z"/><path class="cls-1" d="M193.25,44a3.41,3.41,0,0,1,1.18,2.71v6.67h-3.2V52.18a3,3,0,0,1-1.28,1,4.75,4.75,0,0,1-1.84.34,3.63,3.63,0,0,1-2.56-.89,3,3,0,0,1-.94-2.31,2.72,2.72,0,0,1,1-2.27,4.67,4.67,0,0,1,2.91-.82h2.68v-.15a1.47,1.47,0,0,0-.49-1.18,2.28,2.28,0,0,0-1.49-.42,5.76,5.76,0,0,0-1.45.21,8,8,0,0,0-1.6.64l-.93-2.16a13.64,13.64,0,0,1,2.38-.87A9.6,9.6,0,0,1,190,43,5,5,0,0,1,193.25,44Zm-2.77,6.93a1.62,1.62,0,0,0,.73-1V49h-2.06a1.9,1.9,0,0,0-1.11.26,1,1,0,0,0-.37.84,1.1,1.1,0,0,0,.38.88,1.59,1.59,0,0,0,1.07.33A2.41,2.41,0,0,0,190.48,50.91Z"/><path class="cls-1" d="M201.4,43.51a4,4,0,0,1,1.94-.5v3a2.7,2.7,0,0,0-.45,0,3.17,3.17,0,0,0-2,.58,2.29,2.29,0,0,0-.88,1.6v5.24h-3.28V43.16H200v1.71A3.72,3.72,0,0,1,201.4,43.51Z"/><path class="cls-1" d="M212,43.64a4.41,4.41,0,0,1,1.85,1.7l-2.35,1.41a2.35,2.35,0,0,0-2.06-1,1.92,1.92,0,0,0-1.54.7,3.3,3.3,0,0,0,0,3.75,1.88,1.88,0,0,0,1.55.71,2.19,2.19,0,0,0,2.08-1.15l2.39,1.39a4.24,4.24,0,0,1-1.83,1.75,6.09,6.09,0,0,1-2.81.62,5.63,5.63,0,0,1-2.74-.65A4.74,4.74,0,0,1,204.64,51a5.41,5.41,0,0,1-.66-2.71,5.56,5.56,0,0,1,.66-2.74,4.6,4.6,0,0,1,1.87-1.84,5.65,5.65,0,0,1,2.77-.66A5.85,5.85,0,0,1,212,43.64Z"/><path class="cls-1" d="M218,42h-2.49l2-3.18,3,1Zm-2.49,11.36V43.16h3.26v10.2Z"/><path class="cls-1" d="M229.18,44a3.38,3.38,0,0,1,1.18,2.71v6.67h-3.19V52.18a3.11,3.11,0,0,1-1.29,1,4.75,4.75,0,0,1-1.84.34,3.58,3.58,0,0,1-2.55-.89,3,3,0,0,1-1-2.31,2.75,2.75,0,0,1,1-2.27,4.69,4.69,0,0,1,2.91-.82h2.69v-.15a1.48,1.48,0,0,0-.5-1.18,2.26,2.26,0,0,0-1.49-.42,5.76,5.76,0,0,0-1.45.21,8,8,0,0,0-1.6.64l-.92-2.16a13.27,13.27,0,0,1,2.37-.87,9.6,9.6,0,0,1,2.36-.28A4.93,4.93,0,0,1,229.18,44Zm-2.77,6.93a1.67,1.67,0,0,0,.74-1V49h-2.06a1.86,1.86,0,0,0-1.11.26,1,1,0,0,0-.37.84A1.07,1.07,0,0,0,224,51a1.55,1.55,0,0,0,1.06.33A2.39,2.39,0,0,0,226.41,50.91Z"/><path class="cls-1" d="M238.78,42.63a1.21,1.21,0,0,1-.33.87,1.15,1.15,0,0,1-.84.34,1.1,1.1,0,0,1-.81-.33,1.19,1.19,0,0,1-.35-.88,1.73,1.73,0,0,1,.35-1L237.87,40H239l-.73,1.65A1.11,1.11,0,0,1,238.78,42.63Zm2.82,0a1.21,1.21,0,0,1-.33.87,1.2,1.2,0,0,1-1.66,0,1.22,1.22,0,0,1-.34-.88,1.79,1.79,0,0,1,.34-1L240.69,40h1.11l-.72,1.65A1.11,1.11,0,0,1,241.6,42.63Z"/><path class="cls-1" d="M251.08,51.33v2h-8V40.11h2.23V51.33Z"/><path class="cls-1" d="M259.11,52.13a4,4,0,0,1-3.32,1.32,4.12,4.12,0,0,1-1.87-.41,2.91,2.91,0,0,1-1.67-2.71,2.67,2.67,0,0,1,1-2.2,4.48,4.48,0,0,1,2.81-.83h3V47a1.86,1.86,0,0,0-.62-1.49,2.62,2.62,0,0,0-1.79-.53,5.25,5.25,0,0,0-3,1l-.9-1.51a10.46,10.46,0,0,1,2.07-1,7.76,7.76,0,0,1,2.26-.29,4.37,4.37,0,0,1,3,.94,3.32,3.32,0,0,1,1.08,2.6l0,6.61h-2.15Zm-.91-.94a1.89,1.89,0,0,0,.9-1.37v-.93h-2.73a3.16,3.16,0,0,0-1.58.31,1.13,1.13,0,0,0-.5,1,1.3,1.3,0,0,0,.52,1.09,2.23,2.23,0,0,0,1.43.41A3.45,3.45,0,0,0,258.2,51.19Z"/><path class="cls-1" d="M278.48,53.36l-7.06-9.5v9.5h-2.24V40.11h2.2l7.1,9.52V40.11h2.2V53.36Z"/><path class="cls-1" d="M291.76,44.56a5.51,5.51,0,0,1,1.18,3.78c0,.17,0,.44,0,.81h-7.61a3.18,3.18,0,0,0,1.1,1.85,3.1,3.1,0,0,0,2,.68,4.08,4.08,0,0,0,1.55-.31,3.68,3.68,0,0,0,1.29-.87l1.15,1.23A5.27,5.27,0,0,1,290.59,53a6.15,6.15,0,0,1-2.35.44,5.43,5.43,0,0,1-2.69-.64,4.54,4.54,0,0,1-1.81-1.8,5.33,5.33,0,0,1-.64-2.65,5.4,5.4,0,0,1,.64-2.66,4.57,4.57,0,0,1,1.81-1.81,5.23,5.23,0,0,1,2.64-.66A4.5,4.5,0,0,1,291.76,44.56Zm-1.57,1.09a2.81,2.81,0,0,0-2-.69,2.88,2.88,0,0,0-2,.69,3.18,3.18,0,0,0-1,1.91H291A2.66,2.66,0,0,0,290.19,45.65Z"/><path class="cls-1" d="M304.25,52.38a4.72,4.72,0,0,1-.64,2.5,4.27,4.27,0,0,1-1.83,1.63,6.22,6.22,0,0,1-2.75.57,7.34,7.34,0,0,1-4.19-1.32l.94-1.57a5.84,5.84,0,0,0,1.5.82,4.7,4.7,0,0,0,1.66.28,3.29,3.29,0,0,0,2.3-.78,2.66,2.66,0,0,0,.86-2.08V51.16a3.39,3.39,0,0,1-1.36,1.27,4.25,4.25,0,0,1-2,.44,4.55,4.55,0,0,1-2.37-.62,4.19,4.19,0,0,1-1.6-1.71,5.43,5.43,0,0,1-.57-2.54,5.31,5.31,0,0,1,.57-2.51,4,4,0,0,1,1.6-1.68,4.64,4.64,0,0,1,2.37-.6,4.15,4.15,0,0,1,2,.45,3.61,3.61,0,0,1,1.37,1.26V43.28h2.15Zm-3-2.09a3.46,3.46,0,0,0,0-4.45A2.69,2.69,0,0,0,299.2,45a2.73,2.73,0,0,0-2.1.86,3.15,3.15,0,0,0-.83,2.22,3.19,3.19,0,0,0,.82,2.23,3,3,0,0,0,4.2,0Z"/><path class="cls-1" d="M310.85,43.74a4,4,0,0,1,2.08-.53V45.3a3.34,3.34,0,0,0-2.42.7,3,3,0,0,0-1.06,2.1v5.26h-2.18V43.28h2.18v2A3.74,3.74,0,0,1,310.85,43.74Z"/><path class="cls-1" d="M320.36,52.13a4.7,4.7,0,0,1-5.19.91,2.94,2.94,0,0,1-1.68-2.71,2.67,2.67,0,0,1,1-2.2,4.45,4.45,0,0,1,2.8-.83h3V47a1.85,1.85,0,0,0-.61-1.49,2.64,2.64,0,0,0-1.79-.53,5.3,5.3,0,0,0-3,1l-.89-1.51a10.46,10.46,0,0,1,2.07-1,7.71,7.71,0,0,1,2.26-.29,4.32,4.32,0,0,1,3,.94,3.36,3.36,0,0,1,1.09,2.6v6.61h-2.14Zm-.91-.94a1.88,1.88,0,0,0,.89-1.37v-.93h-2.72a3.13,3.13,0,0,0-1.58.31,1.11,1.11,0,0,0-.5,1,1.3,1.3,0,0,0,.52,1.09,2.21,2.21,0,0,0,1.43.41A3.45,3.45,0,0,0,319.45,51.19Z"/><path class="cls-1" d="M326.68,40.44a1.15,1.15,0,0,1,.34.88,1.71,1.71,0,0,1-.34,1l-1.07,1.63h-1.12l.72-1.63a1.12,1.12,0,0,1-.52-1,1.2,1.2,0,0,1,.34-.87,1.11,1.11,0,0,1,.84-.34A1.13,1.13,0,0,1,326.68,40.44Zm2.82,0a1.15,1.15,0,0,1,.34.88,1.71,1.71,0,0,1-.34,1l-1.07,1.63h-1.12L328,42.3a1.12,1.12,0,0,1-.52-1,1.16,1.16,0,0,1,.34-.87,1.11,1.11,0,0,1,.84-.34A1.13,1.13,0,0,1,329.5,40.44Z"/><path class="cls-1" d="M68.82,24.41s0,0,0,.09c-2.13,4.85-5.15,11.36-7.27,14.27,1-3.78,1.86-7.15,2.68-10.57.39-2.66.13-4.85-1.71-5.23-.43,0-.83.13-1,1a7.92,7.92,0,0,0-.14.87l-.14,1.11c-.06.29-.11.58-.2.91a18.07,18.07,0,0,1-.87,2.47c-2.19,4.88-5.31,11.13-6.84,10.82-1-.2-.55-2.71-.1-4.51,1.34-5.56,8.07-22.28,11-21.69,1.49.3,1.25,4.49.51,7.73-.18.66-.35,1.27-.6,2,.06.36.21.59.35.62a1.15,1.15,0,0,0,.61-.38,23,23,0,0,0,.78-2.53c1.28-5.27,1.07-11.44-1.37-11.94C60.17,8.55,53.63,22,50.62,31.59a21.92,21.92,0,0,1,.49-4v-.11s0-.09,0-.13a55.1,55.1,0,0,1,4-15.73c.77-1.81,1.45-3.69,2.11-5.51.19-.55.39-1.1.59-1.65a1.51,1.51,0,0,0,0-.67,2.66,2.66,0,0,1,0-.3V3.36l-.17,0c-1.91.37-2.52.61-2.92,1.48s-.69,1.51-1,2.26C53.19,8.4,52.61,9.71,52,11l-1,1.91c-1.82,3.6-3.69,7.33-5.73,10.91C44,26,42.59,28.22,41.21,30.36c-.94,1.45-1.91,3-2.82,4.45-1.84,3-3.6,6.14-5.25,9.08a2.5,2.5,0,0,1-2.7,1.18c-.92-.09-1-.62-1.16-1.34,0-.15-.06-.31-.1-.47a3.27,3.27,0,0,1-.08-.5,3.11,3.11,0,0,0,0-.32,12.84,12.84,0,0,1,.09-5.78c1-3.28,2.28-6.57,3.49-9.75.65-1.73,1.33-3.52,2-5.29.73-2,1.43-4.12,2.11-6.14.51-1.52,1-3.09,1.58-4.63.74-2.09,1.51-4.21,2.25-6.27l1.11-3,.06-.14a.74.74,0,0,0,.09-.54A1.43,1.43,0,0,0,41.15,0a1.45,1.45,0,0,0-1,.26,2.11,2.11,0,0,0-.71.82L39,2c-.77,1.77-1.57,3.6-2.28,5.42-1.16,3-2.32,6-3.44,8.92C31.9,20,30.45,23.76,29,27.47c-.66,1.68-1.38,3.37-2.08,5s-1.3,3-1.9,4.55-1.24,3.24-1.83,4.82c-.52,1.41-1.06,2.87-1.62,4.3-.74,1.9-1.5,3.8-2.26,5.7-1.43,3.57-2.91,7.27-4.27,10.93l-.16.4a2.39,2.39,0,0,0,.06,2.75L15,66l.1-.06c2.19-1.07,2.32-1.14,3.08-2.89.91-2.11,1.81-4.26,2.67-6.34l.64-1.54c.37-.88.73-1.76,1.09-2.64.68-1.64,1.37-3.34,2.09-5,.13-.3.28-.72.43-1.17a18.2,18.2,0,0,1,.83-2.07,13.61,13.61,0,0,1,.63,2.23,9.18,9.18,0,0,0,.64,2.14,2.94,2.94,0,0,0,2.09,1.43,4.3,4.3,0,0,0,3.42-.94,14,14,0,0,0,2.64-3.07c1.28-1.93,2.6-4.07,4.13-6.72,1.69-2.91,3.35-5.88,5-8.75l1.06-1.88c.74-1.32,1.48-2.65,2.25-4.07L48.66,23a2.18,2.18,0,0,1,0,.24c-.1,1.23-.19,2.47-.28,3.7-.21,2.79-.42,5.67-.62,8.51a17.45,17.45,0,0,0,0,2.67A29.45,29.45,0,0,0,48.74,43v.05l0,0a2.67,2.67,0,0,1,.3.26l.29.3c.23.23.46.48.71.7l0,0h.3l.28.08c2.23.46,5.36-4.49,8-9.64l-1,3.19c-.62,2-1.36,4.46-2.09,6.9-5.27,6.81-10.41,14.19-14.16,25.58a32.29,32.29,0,0,0-.86,3.27c-.92,4.54-.59,8.15.87,8.89,5,2.57,12.6-19.22,18.68-39.81,2.47-2.49,6.72-11.44,9.52-18C69.52,23.9,69.19,24,68.82,24.41ZM54.21,49.55l-.39,1.26L52.72,54c-2.31,6.71-5.48,15.88-8.1,20.38C43.75,76,42.92,77,42.22,77c-.74-.15-.79-1.4-.45-3.08.82-4.07,3.72-10.7,4.79-12.88A65.74,65.74,0,0,1,54.4,49Z"/></g></g></svg>